<?xml version="1.0" encoding="utf-8"?>
<!-- Generator: Adobe Illustrator 16.0.2, SVG Export Plug-In . SVG Version: 6.00 Build 0)  -->
<!DOCTYPE svg PUBLIC "-//W3C//DTD SVG 1.1//EN" "http://www.w3.org/Graphics/SVG/1.1/DTD/svg11.dtd">
<svg version="1.1" id="Layer_1" xmlns="http://www.w3.org/2000/svg" xmlns:xlink="http://www.w3.org/1999/xlink" x="0px" y="0px"
	 width="149.981px" height="189.977px" viewBox="0 0 149.981 189.977" enable-background="new 0 0 149.981 189.977"
	 xml:space="preserve">
<g>
	<path fill-rule="evenodd" clip-rule="evenodd" fill="#D8CA1E" d="M98.394,104.146c1.898-1.892,1.898-1.892,2.267-4.677
		c-1.646-0.899-1.953,2.072-3.538,1.26c-0.113-3.043,3.906-4.748,2.665-8.141c-1.979-5.41-2.39-11.054-2.563-16.737
		c-1.592-3.634-3.183-7.269-4.774-10.902c-0.428,0.144-0.855,0.287-1.283,0.43c0.068,5.125,2.457,9.772,3.715,14.652
		c0.417,7.345,0.401,14.677-0.672,21.976c-2.179,7.639-4.344,15.281-6.545,22.913c-0.755,2.619-0.968,5.388-0.381,7.914
		c1.809,7.789,0.256,15.22-2.015,22.54c-1.298,4.184-1.354,8.052,0.609,11.958c0.507,1.009,1.375,2.294-0.075,3.038
		c-2.381,1.223-4.984,2.022-7.655,1.031c-1.636-0.607-1.33-2.152-0.994-3.443c2.212-8.484,0.115-16.603-2.15-24.778
		c-3.035,7.919-3.933,16.059-2.623,24.411c0.228,1.453,1.35,3.059-0.621,3.84c-2.631,1.044-5.347,0.179-7.705-0.931
		c-2.035-0.956-0.41-2.664,0.147-3.858c1.549-3.323,1.775-6.59,0.617-10.103c-2.743-8.314-3.512-16.695-2.264-25.525
		c0.909-6.436-2.232-12.609-4.115-18.78c-1.061-3.477-1.953-7.003-2.925-10.505c-1.344-10.932-1.414-21.763,2.529-32.291
		c0.597-1.593,1.554-3.358-0.808-4.711c-1.744,4.343-4.821,8.593-4.874,12.881c-0.098,7.835-4.389,15.69-0.304,23.539
		c-0.774-0.564-1.547-1.129-2.326-1.69c-2.3,2.274,1.322,3.885,0.743,6.335c-3.921-1.322-5.895-4.443-6.177-7.738
		c-1.115-13.041-2.153-26.172,2.757-38.798c3.124-8.031,8.078-13.918,17.272-15.437c5.586-0.923,6.252-2.845,3.85-7.826
		c-0.501-1.04-1.005-2.091-1.366-3.183c-1.235-3.738-2.095-7.507,1.373-10.589c2.921-2.595,8.985-2.724,12.744-0.522
		c2.242,1.314,3.218,3.194,3.16,5.77c-0.078,3.429-1.284,6.474-2.998,9.348c-1.998,3.35-0.726,5.775,2.609,6.424
		c17.987,3.494,20.441,17.464,22.384,32.128c0.907,6.853-0.485,13.55-0.347,20.333c0.078,3.816-1.691,7.012-4.683,9.514
		c-1.576,1.319-2.234,0.498-2.819-0.904L98.394,104.146z M74.704,138.81c3.303-10.89,1.767-20.355,0.026-29.821
		C73.414,118.449,71.836,127.91,74.704,138.81z"/>
</g>
</svg>
